<?xml version="1.0" standalone="no"?>
<!DOCTYPE svg PUBLIC "-//W3C//DTD SVG 20010904//EN"
 "http://www.w3.org/TR/2001/REC-SVG-20010904/DTD/svg10.dtd">
<svg version="1.0" xmlns="http://www.w3.org/2000/svg"
 width="700.000000pt" height="700.000000pt" viewBox="0 0 700.000000 700.000000"
 preserveAspectRatio="xMidYMid meet">
<metadata>
Created by potrace 1.11, written by Peter Selinger 2001-2013
</metadata>
<g transform="translate(0.000000,700.000000) scale(0.100000,-0.100000)"
fill="#000000" stroke="none">
<path d="M0 3541 l0 -3459 53 -8 c28 -4 54 -8 57 -9 3 -1 37 -5 75 -9 39 -5
79 -10 90 -12 11 -2 52 -7 90 -10 39 -3 81 -7 95 -9 149 -25 947 -26 1075 -1
11 2 54 7 95 11 109 9 141 13 175 19 17 3 53 8 80 11 42 6 104 17 340 59 192
35 636 163 840 241 289 112 330 129 535 227 106 51 336 173 405 215 11 7 31
18 45 25 14 7 57 34 97 60 40 26 77 48 83 48 5 0 10 5 10 10 0 6 4 10 10 10
13 0 180 115 340 234 137 102 319 251 426 347 73 66 373 366 434 435 83 92
181 208 220 258 8 10 27 33 41 50 14 17 45 58 70 91 24 33 49 65 54 71 6 6 17
22 25 34 8 12 22 32 31 44 9 11 57 82 106 156 184 277 352 582 478 865 36 83
72 164 80 180 22 51 122 325 154 425 64 200 143 500 166 633 4 18 10 51 16 75
5 23 12 59 15 78 3 20 7 45 9 55 2 10 11 69 20 131 9 62 18 122 20 134 1 11 6
52 10 90 3 38 8 89 11 114 25 241 25 823 -1 1085 -7 72 -18 179 -20 185 -1 3
-5 37 -10 75 -5 39 -9 72 -10 75 0 3 -4 31 -9 63 l-7 57 -3460 0 -3459 0 0
-3459z"/>
</g>
</svg>
