<?xml version="1.0" encoding="utf-8"?><svg xmlns="http://www.w3.org/2000/svg" xmlns:xlink="http://www.w3.org/1999/xlink"><symbol viewBox="0 0 160 168" id="icon-gift" xmlns="http://www.w3.org/2000/svg"><path fill-rule="evenodd" d="M151.579 80.958H84.207V51.573L94.38 61.76a4.195 4.195 0 0 0 2.979 1.237 4.186 4.186 0 0 0 2.975-1.237 4.22 4.22 0 0 0 0-5.964L90.146 45.59h61.433v35.368zm-67.372 78.605h60.233V89.392H84.207v70.17zm9.375-134.5c4.073-6.418 9.928-13.035 9.913-13.035 4.804-4.8 12.606-4.796 17.39 0a12.255 12.255 0 0 1 3.604 8.71 12.268 12.268 0 0 1-3.604 8.705l-7.706 7.709H86.744c1.741-3.406 4.134-7.828 6.838-12.089zM75.784 80.958H8.421V45.59h61.428L53.594 61.87a4.224 4.224 0 0 0 0 5.968 4.192 4.192 0 0 0 2.975 1.234 4.207 4.207 0 0 0 2.98-1.234L75.783 51.57v29.389zM15.56 159.563h60.224V89.392H15.56v70.17zM39.114 12.028c4.785-4.8 12.587-4.8 17.211-.176.065.07 5.974 6.72 10.084 13.215 2.709 4.261 5.105 8.679 6.842 12.085H46.813l-7.703-7.713a12.221 12.221 0 0 1-3.604-8.702 12.224 12.224 0 0 1 3.608-8.709zm116.674 25.124h-30.69l1.742-1.745c3.912-3.918 6.064-9.126 6.068-14.666 0-5.544-2.152-10.756-6.068-14.677-8.069-8.083-21.208-8.087-29.46.172-.262.294-6.43 7.24-10.902 14.303-2.526 3.974-4.74 7.976-6.48 11.32-1.745-3.344-3.955-7.346-6.48-11.32-4.476-7.06-10.644-14.013-11.07-14.479-8.077-8.08-21.22-8.083-29.288.004a20.602 20.602 0 0 0-6.073 14.677 20.6 20.6 0 0 0 6.073 14.666l1.744 1.745H4.211a4.216 4.216 0 0 0-4.21 4.219v43.806a4.212 4.212 0 0 0 4.21 4.215h2.926v74.39a4.22 4.22 0 0 0 4.213 4.219h137.3a4.216 4.216 0 0 0 4.212-4.22V89.393h2.926a4.216 4.216 0 0 0 4.214-4.215V41.37a4.22 4.22 0 0 0-4.214-4.22z"/></symbol><symbol viewBox="0 0 32 32" id="icon-social-fb" xmlns="http://www.w3.org/2000/svg"><path fill-rule="evenodd" d="M14 11.76V14h-3v3h3v7h3v-7h2.995l.398-3H17v-1.958c0-.824.59-1.042 1.869-1.042H20V8.112C20 8.078 18.919 8 17.793 8 15.44 8 14 9.326 14 11.76M16 31C7.729 31 1 24.27 1 16 1 7.729 7.729 1 16 1s15 6.729 15 15c0 8.27-6.729 15-15 15m0-31C7.163 0 0 7.164 0 16c0 8.837 7.163 16 16 16s16-7.163 16-16c0-8.836-7.163-16-16-16"/></symbol><symbol viewBox="0 0 32 32" id="icon-social-instagram" xmlns="http://www.w3.org/2000/svg"><path fill-rule="evenodd" d="M22.512 19.233c-.036.78-.166 1.204-.275 1.485-.146.374-.319.64-.599.92-.28.28-.546.454-.92.599-.282.109-.705.24-1.485.275-.844.039-1.097.047-3.233.047s-2.389-.008-3.233-.047c-.78-.035-1.203-.166-1.485-.275a2.474 2.474 0 0 1-.92-.599 2.472 2.472 0 0 1-.598-.92c-.11-.281-.24-.705-.276-1.485-.038-.844-.046-1.097-.046-3.233s.008-2.389.046-3.232c.036-.78.166-1.204.276-1.486a2.48 2.48 0 0 1 .598-.92c.28-.28.546-.453.92-.598.282-.11.705-.24 1.485-.276.844-.038 1.097-.046 3.233-.046s2.389.008 3.233.046c.78.036 1.203.166 1.485.276.374.145.64.318.92.598.28.28.453.547.599.92.109.282.239.706.275 1.486.039.843.047 1.096.047 3.232s-.008 2.389-.047 3.233m1.068-8.473a3.916 3.916 0 0 0-.923-1.417 3.92 3.92 0 0 0-1.417-.923c-.508-.197-1.09-.333-1.942-.372C18.445 8.01 18.173 8 16 8s-2.445.01-3.298.048c-.852.039-1.433.175-1.942.372a3.929 3.929 0 0 0-1.417.923 3.929 3.929 0 0 0-.923 1.417c-.198.509-.333 1.09-.372 1.942C8.009 13.555 8 13.828 8 16c0 2.173.009 2.445.048 3.299.039.851.174 1.433.372 1.942.205.526.478.972.923 1.417.445.444.891.718 1.417.922.509.198 1.09.333 1.942.372.853.039 1.125.048 3.298.048s2.445-.009 3.298-.048c.852-.039 1.434-.174 1.942-.372a3.918 3.918 0 0 0 1.417-.922c.445-.445.719-.891.923-1.417.198-.509.333-1.091.372-1.942.039-.854.048-1.126.048-3.299 0-2.172-.009-2.445-.048-3.298-.039-.852-.174-1.433-.372-1.942m-3.216.149a.728.728 0 1 0 0 1.456.728.728 0 0 0 0-1.456M16 18.597a2.597 2.597 0 1 1 .001-5.193A2.597 2.597 0 0 1 16 18.597M16 12a4 4 0 1 0 0 8 4 4 0 0 0 0-8m0 19C7.729 31 1 24.271 1 16S7.729 1 16 1s15 6.729 15 15-6.729 15-15 15m0-31C7.164 0 0 7.164 0 16c0 8.837 7.164 16 16 16 8.837 0 16-7.163 16-16 0-8.836-7.163-16-16-16"/></symbol><symbol viewBox="0 0 32 32" id="icon-social-vk" xmlns="http://www.w3.org/2000/svg"><path fill-rule="evenodd" d="M24.474 11.72c-.124-.357-.892-.262-.892-.262l-2.557.016s-.19-.026-.33.06c-.137.085-.225.283-.225.283s-.405 1.11-.944 2.055c-1.14 1.993-1.594 2.098-1.78 1.974-.433-.288-.324-1.158-.324-1.776 0-1.932.284-2.737-.554-2.945-.278-.07-.482-.115-1.193-.123-.912-.01-1.684.003-2.121.224-.291.147-.515.474-.378.493.169.023.55.106.754.39.262.368.253 1.194.253 1.194s.15 2.273-.352 2.555c-.344.194-.817-.201-1.832-2.01-.52-.926-.912-1.95-.912-1.95s-.076-.191-.211-.293a1.034 1.034 0 0 0-.392-.163l-2.43.016s-.364.01-.498.174c-.12.145-.01.446-.01.446s1.902 4.609 4.055 6.92C13.576 21.118 15.818 21 15.818 21h1.016s.307-.056.464-.23c.144-.16.139-.471.139-.471s-.02-1.411.613-1.618c.624-.204 1.425 1.356 2.274 1.957.642.455 1.13.354 1.13.354l2.27-.033s1.188-.076.625-1.04c-.046-.078-.328-.711-1.688-2.013-1.424-1.362-1.233-1.142.482-3.498 1.044-1.436 1.46-2.312 1.33-2.687M16 31C7.729 31 1 24.27 1 16 1 7.729 7.729 1 16 1c8.27 0 15 6.729 15 15 0 8.27-6.73 15-15 15m0-31C7.164 0 0 7.164 0 16c0 8.837 7.164 16 16 16 8.837 0 16-7.163 16-16 0-8.836-7.163-16-16-16"/></symbol><symbol viewBox="0 0 63 40" id="logo" xmlns="http://www.w3.org/2000/svg"><defs><path id="ea" d="M0 25V0h63v25z"/></defs><g fill-rule="evenodd"><path d="M16.5 40h30.001v-6H16.5zM21 28h21v-6H21z"/><mask id="eb"><use xlink:href="#ea"/></mask><path d="M45.616 12.258C35.886 6.508 31.5.002 31.5.002S27.114 6.509 17.384 12.26C12.806 14.963 7.078 17.3 0 19.081L6.856 25s6.369-2.776 14.487-9.118C28.63 10.188 31.076 5.229 31.5 4.272c.424.957 2.869 5.915 10.157 11.61C49.776 22.224 56.144 25 56.144 25L63 19.082c-7.077-1.782-12.806-4.118-17.384-6.824" mask="url(#eb)"/></g></symbol><symbol viewBox="0 0 64 64" id="s-1" xmlns="http://www.w3.org/2000/svg"><path fill-rule="evenodd" d="M64 18.745C64 8.392 55.607 0 45.255 0H24C10.745 0 0 10.745 0 24v21.255c0 4.971 1.975 9.74 5.49 13.254 6.363 6.363 16.158 7.188 23.42 2.491H29V30.536l-9 3.648V21.192L30.368 16H42v32.301l16.406-16.3C61.921 28.483 64 23.715 64 18.744"/></symbol><symbol viewBox="0 0 64 64" id="s-2" xmlns="http://www.w3.org/2000/svg"><path fill-rule="evenodd" d="M64 18.745C64 8.392 55.607 0 45.255 0H24C10.745 0 0 10.745 0 24v21.255c0 4.971 1.975 9.74 5.49 13.254 6.363 6.363 16.158 7.188 23.42 2.491H15v-9.856l11.14-9.6c2.688-2.368 4.578-4.224 5.538-5.632 1.024-1.472 1.553-2.88 1.553-4.224 0-2.368-1.939-3.904-5.012-3.904-3.839 0-7.219 1.472-11.219 4.352V18.632c3-2.24 7.58-3.328 12.7-3.328 4.544 0 8.462 1.344 11.982 3.968 3.52 2.624 5.287 6.208 5.287 10.688 0 3.264-.717 6.208-2.061 8.704-1.344 2.496-3.782 5.412-7.302 8.356L34.272 50h6.694L58.51 32.228C62.025 28.712 64 23.716 64 18.745"/></symbol><symbol viewBox="0 0 64 64" id="s-3" xmlns="http://www.w3.org/2000/svg"><path fill-rule="evenodd" d="M64 18.745C64 8.392 55.607 0 45.255 0H24C10.745 0 0 10.745 0 24v21.255c0 4.971 1.975 9.739 5.49 13.254 5.969 5.969 15.167 7.067 22.252 3.304C23.217 61.514 19 60.33 16 58.248V45.832c4 2.752 8.816 4.16 12.72 4.16 4.032 0 6.616-1.728 6.616-4.544 0-2.56-2.06-4.416-5.836-4.416-2.88 0-5.5.512-7.5 1.536v-8.256L30.752 28H17V16h30v10.44l-7.868 6.272c5.192 1.997 8.288 5.09 9.429 9.298L58.541 32C62.056 28.484 64 23.716 64 18.745"/></symbol></svg>